# AST/ASF file generated using VICON BodyLanguage
# -----------------------------------------------
:version 1.10
:name VICON
:units
  mass 1.0
  length 0.45
  angle deg
:documentation
   .ast/.asf automatically generated from VICON data using
   VICON BodyBuilder and BodyLanguage model FoxedUp or BRILLIANT.MOD
:root
   order TX TY TZ RX RY RZ
   axis XYZ
   position 0 0 0  
   orientation 0 0 0 
:bonedata
  begin
     id 1 
     name lhipjoint
     direction 0.528046 -0.759594 0.379717 
     length 2.39752 
     axis 0 0 0  XYZ
  end
  begin
     id 2 
     name lfemur
     direction 0.34202 -0.939693 0  
     length 7.31175  
     axis 0 0 20  XYZ
    dof rx ry rz
    limits (-160.0 20.0)
           (-70.0 70.0)
           (-60.0 70.0)
  end
  begin
     id 3 
     name ltibia
     direction 0.34202 -0.939693 0   
     length 7.52482   
     axis 0 0 20   XYZ
    dof rx
    limits (-10.0 170.0)
  end
  begin
     id 4 
     name lfoot
     direction 0.0675379 -0.185559 0.980309   
     length 2.00961   
     axis -90 7.62852e-016 20   XYZ
    dof rx rz
    limits (-45.0 90.0)
           (-70.0 20.0)
  end
  begin
     id 5 
     name ltoes
     direction 1.5352e-011 -4.22286e-011 1   
     length 1.01383   
     axis -90 7.62852e-016 20   XYZ
    dof rx
    limits (-90.0 20.0)
  end
  begin
     id 6 
     name rhipjoint
     direction -0.510274 -0.769251 0.384544   
     length 2.36742  
     axis 0 0 0  XYZ 
  end
  begin
     id 7 
     name rfemur
     direction -0.34202 -0.939693 0   
     length 7.45325   
     axis 0 0 -20   XYZ
    dof rx ry rz
    limits (-160.0 20.0)
           (-70.0 70.0)
           (-70.0 60.0)
  end
  begin
     id 8 
     name rtibia
     direction -0.34202 -0.939693 0   
     length 7.49587   
     axis 0 0 -20   XYZ
    dof rx
    limits (-10.0 170.0)
 end
 begin
     id 9 
     name rfoot
     direction -0.106475 -0.292536 0.950308   
     length 2.20898  
     axis -90 -7.62852e-016 -20   XYZ
    dof rx rz
    limits (-45.0 90.0)
           (-20.0 70.0)
  end
  begin
     id 10 
     name rtoes
     direction -1.53597e-011 -4.22023e-011 1   
     length 1.10065   
     axis -90 -7.62852e-016 -20   XYZ
    dof rx
    limits (-90.0 20.0)
  end
  begin
     id 11 
     name lowerback
     direction 0.0260024 0.998026 -0.0571652   
     length 2.11214   
     axis 0 0 0   XYZ
    dof rx ry rz
    limits (-20.0 45.0)
           (-30.0 30.0)
           (-30.0 30.0)
  end
  begin
     id 12 
     name upperback
     direction 0.0216202 0.999542 -0.0211766   
     length 2.11689   
     axis 0 0 0   XYZ
    dof rx ry rz
    limits (-20.0 45.0)
           (-30.0 30.0)
           (-30.0 30.0)
  end
  begin
     id 13 
     name thorax
     direction 0.00883312 0.999944 0.00589057   
     length 2.11821   
     axis 0 0 0   XYZ
    dof rx ry rz
    limits (-20.0 45.0)
           (-30.0 30.0)
           (-30.0 30.0)
  end
  begin
     id 14 
     name lowerneck
     direction -0.059386 0.994433 0.0870401   
     length 1.81176   
     axis 0 0 0   XYZ
    dof rx ry rz
    limits (-20.0 45.0)
           (-30.0 30.0)
           (-30.0 30.0)
  end
  begin
     id 15 
     name upperneck
     direction 0.0506457 0.97328 -0.223967   
     length 1.82382   
     axis 0 0 0   XYZ
    dof rx ry rz
    limits (-20.0 45.0)
           (-30.0 30.0)
           (-30.0 30.0)
  end
  begin
     id 16
     name head
     direction 0.0205902 0.996147 -0.0852487  
     length 1.84805  
     axis 0 0 0   XYZ
    dof rx ry rz
    limits (-20.0 45.0)
           (-30.0 30.0)
           (-30.0 30.0)
  end
  begin
     id 17 
     name lclavicle
     direction 0.949493 0.303881 -0.0782325  
     length 3.60584  
     axis 0 0 0   XYZ
    dof ry rz
    limits (-20.0 10.0)
           (0.0 20.0)
  end
  begin
     id 18 
     name lhumerus
     direction 1 -4.48965e-011 1.48782e-027   
     length 4.95681   
     axis 180 -30 -90   XYZ
    dof rx ry rz
    limits (-60.0 90.0)
           (-90.0 90.0)
           (-90.0 90.0)
  end
  begin
     id 19
     name lradius
     direction 1 -4.48952e-011 2.06528e-027   
     length 3.40915   
     axis 180 -30 -90   XYZ
    dof rx
    limits (-10.0 170.0)
  end
  begin
     id 20
     name lwrist
     direction 1 -4.48964e-011 1.28021e-027   
     length 1.70457   
     axis -1.61767e-015 90 90   XYZ
    dof ry
    limits (-180.0 0.0)
 end
  begin
     id 21 
     name lhand
     direction 1 -4.49094e-011 2.54887e-027   
     length 0.616403   
     axis -1.63363e-015 90 90   XYZ
    dof rx rz
    limits (-90.0 90.0)
           (-45.0 45.0)
  end
  begin
     id 22 
     name lfingers
     direction 1 -4.49002e-011 5.11407e-027   
     length 0.49696   
     axis -3.26723e-015 90 90   XYZ
    dof rx
    limits (0.0 90.0)
  end
  begin
     id 23
     name lthumb
     direction 0.707107 -6.34998e-011 0.707107   
     length 0.713539   
     axis -90 45 -2.25915e-014   XYZ
    dof rx rz
    limits (-45.0 45.0)
           (-45.0 45.0)
  end
  begin
     id 24 
     name rclavicle
     direction -0.937751 0.334612 -0.0930482   
     length 3.46287  
     axis 0 0 0   XYZ 
    dof ry rz
    limits (-10.0 20.0)
           (-20.0 0.0)
  end
  begin
     id 25 
     name rhumerus
     direction -1 -4.48962e-011 3.59972e-027  
     length 5.352   
     axis 180 30 90   XYZ
    dof rx ry rz
    limits (-90.0 60.0)
           (-90.0 90.0)
           (-90.0 90.0)
  end
  begin
     id 26 
     name rradius
     direction -1 -4.48987e-011 -3.76925e-027   
     length 3.43721   
     axis 180 30 90   XYZ
    dof rx
    limits (-10.0 170.0)
  end
  begin
     id 27 
     name rwrist
     direction -1 -4.48943e-011 1.28112e-027   
     length 1.7186   
     axis -1.61767e-015 -90 -90   XYZ
    dof ry
    limits (-180.0 0.0)
  end
  begin
     id 28
     name rhand
     direction -1 -4.49027e-011 2.55483e-027   
     length 0.72009   
     axis -1.63363e-015 -90 -90   XYZ
    dof rx rz
    limits (-90.0 90.0)
           (-45.0 45.0)
  end
  begin
     id 29
     name rfingers
     direction -1 -4.48827e-011 5.14506e-027   
     length 0.580555   
     axis -3.26723e-015 -90 -90   XYZ
    dof rx
    limits (0.0 90.0)
  end
  begin
     id 30
     name rthumb
     direction -0.707107 -6.34936e-011 0.707107   
     length 0.833564   
     axis -90 -45 2.25915e-014   XYZ
    dof rx rz
    limits (-45.0 45.0)
           (-45.0 45.0)
  end
:hierarchy
  begin
    root lhipjoint rhipjoint lowerback
    lhipjoint lfemur
    lfemur ltibia
    ltibia lfoot
    lfoot ltoes
    rhipjoint rfemur
    rfemur rtibia
    rtibia rfoot
    rfoot rtoes
    lowerback upperback
    upperback thorax
    thorax lowerneck lclavicle rclavicle
    lowerneck upperneck
    upperneck head
    lclavicle lhumerus
    lhumerus lradius
    lradius lwrist
    lwrist lhand lthumb
    lhand lfingers
    rclavicle rhumerus
    rhumerus rradius
    rradius rwrist
    rwrist rhand rthumb
    rhand rfingers
  end

#!OML:ASF H:\Terrain\Patient Classification 1\Terrain2\Thursday\justin.ASF
:FULLY-SPECIFIED
:DEGREES
1003
root 18.3919 20.8827 -7.93973 -182.028 4.8206 -179.213
lowerback 4.01975 2.13194 -0.637511
upperback 1.92858 2.90319 0.965789
thorax -0.35359 1.47806 1.22141
lowerneck -11.7783 3.15601 -8.8555
upperneck 41.2928 -0.0356241 3.60713
head 16.9048 -2.85521 2.63301
rclavicle -2.36864e-014 -1.75924e-014
rhumerus -32.3896 -13.9595 -79.2864
rradius 21.7701
rwrist -0.28015
rhand -18.7957 13.4045
rfingers 7.12502
rthumb 7.50237 -16.4425
lclavicle -2.36864e-014 -1.75924e-014
lhumerus -38.1356 15.0367 78.5609
lradius 22.0243
lwrist -4.01362
lhand -15.7417 22.9337
lfingers 7.12502
lthumb 10.4494 52.6541
rfemur -6.53922 -4.41241 17.8891
rtibia 66.7613
rfoot 15.5631 -7.1405
rtoes 21.044
lfemur -9.8333 3.9823 -21.6967
ltibia 19.1577
lfoot -3.09142 -8.47828
ltoes 6.42583
1004
root 18.3885 20.8923 -8.04621 -182.054 4.70412 -179.176
lowerback 4.05143 2.0435 -0.679023
upperback 2.00713 2.78863 0.999032
thorax -0.291214 1.42191 1.28445
lowerneck -11.7599 3.25679 -8.78751
upperneck 41.3883 0.0313573 3.66516
head 16.9446 -2.8244 2.65652
rclavicle -1.90709e-014 -5.96354e-015
rhumerus -32.3202 -13.9395 -79.2482
rradius 22.118
rwrist -0.00468927
rhand -18.4839 13.5533
rfingers 7.12502
rthumb 7.8033 -16.2827
lclavicle -1.90709e-014 -5.96354e-015
lhumerus -38.0311 14.7137 78.7326
lradius 22.3034
lwrist -3.69411
lhand -15.0388 23.1998
lfingers 7.12502
lthumb 11.1273 52.8848
rfemur -7.83371 -4.70429 17.9766
rtibia 68.0328
rfoot 12.8674 -7.20918
rtoes 20.4918
lfemur -9.10919 4.36235 -21.7013
ltibia 18.6151
lfoot -3.10746 -8.93383
ltoes 6.37963
1005
root 18.384 20.9061 -8.14701 -182.132 4.50761 -179.68
lowerback 4.05282 1.92255 -1.34107
upperback 2.13107 2.60798 0.952036
thorax -0.186141 1.32807 1.61723
lowerneck -11.782 3.39829 -8.75595
upperneck 41.4724 0.200047 3.70422
head 16.9786 -2.75612 2.6959
rclavicle -1.20762e-014 -3.18055e-015
rhumerus -32.3064 -13.8769 -79.2282
rradius 22.7596
rwrist -0.394536
rhand -18.2622 12.9543
rfingers 7.12502
rthumb 8.01727 -16.8736
lclavicle -1.20762e-014 -3.18055e-015
lhumerus -37.8915 14.3516 79.0483
lradius 22.7146
lwrist -3.23657
lhand -15.5669 23.3978
lfingers 7.12502
lthumb 10.6179 53.1095
rfemur -9.13697 -5.02812 17.4427
rtibia 69.1667
rfoot 10.5333 -6.56973
rtoes 17.2647
lfemur -8.41889 4.53227 -22.2722
ltibia 18.1346
lfoot -3.30757 -9.22719
ltoes 6.0282
1006
root 18.379 20.9104 -8.24689 -182.064 4.25825 -180.09
lowerback 3.97331 1.77469 -1.92893
upperback 2.20018 2.3941 0.976135
thorax -0.0865176 1.21608 1.98471
lowerneck -11.844 3.44511 -8.78754
upperneck 41.454 0.389855 3.48657
head 16.97 -2.7085 2.63443
rclavicle 2.06612e-014 5.76476e-015
rhumerus -32.2468 -13.1844 -79.424
rradius 23.4439
rwrist -1.95107
rhand -18.5273 12.4633
rfingers 7.12502
rthumb 7.76142 -17.3743
lclavicle 2.06612e-014 5.76476e-015
lhumerus -37.6636 13.9541 79.5418
lradius 23.1495
lwrist -2.8044
lhand -15.9251 23.8045
lfingers 7.12502
lthumb 10.2724 53.5337
rfemur -10.5401 -5.46633 16.9977
rtibia 70.1051
rfoot 8.73443 -5.55711
rtoes 11.4123
lfemur -7.98268 4.64361 -22.7691
ltibia 17.7606
lfoot -3.68954 -9.59075
ltoes 4.52909
1007
root 18.3722 20.9111 -8.3478 -181.939 3.94793 -180.07
lowerback 3.8815 1.61455 -1.93776
upperback 2.24182 2.18439 1.03128
thorax 0.0153151 1.1102 2.0591
lowerneck -11.9291 3.46608 -8.70701
upperneck 41.4764 0.517723 3.21698
head 16.9988 -2.67986 2.51908
rclavicle 2.65874e-014 -1.59028e-014
rhumerus -32.1923 -12.8949 -79.4742
rradius 24.0366
rwrist -2.51357
rhand -18.3466 11.9213
rfingers 7.12502
rthumb 7.93579 -17.9097
lclavicle 2.65874e-014 -1.59028e-014
lhumerus -37.4226 13.3193 80.0275
lradius 23.5227
lwrist -2.06109
lhand -15.0597 23.7796
lfingers 7.12502
lthumb 11.1072 53.4656
rfemur -11.858 -5.94293 17.0398
rtibia 70.7928
rfoot 6.76809 -5.43468
rtoes 9.1643
lfemur -7.65567 4.87961 -22.8327
ltibia 17.4642
lfoot -3.86776 -10.0313
ltoes 3.73291
1008
root 18.3679 20.9033 -8.4429 -181.945 3.64433 -180.181
lowerback 4.00583 1.47626 -2.05958
upperback 2.25935 1.99619 1.01424
thorax -0.0298271 1.01651 2.1145
lowerneck -11.9024 3.5412 -8.5038
upperneck 41.5205 0.603769 3.07914
head 17.0121 -2.63906 2.43259
rclavicle -1.29831e-014 -2.78299e-015
rhumerus -32.2635 -12.7719 -79.5401
rradius 24.7131
rwrist -3.12235
rhand -18.1468 11.2985
rfingers 7.12502
rthumb 8.1287 -18.5252
lclavicle -1.29831e-014 -2.78299e-015
lhumerus -37.3192 12.6408 80.3614
lradius 23.909
lwrist -1.34159
lhand -14.9515 23.211
lfingers 7.12502
lthumb 11.2115 52.8914
rfemur -13.0444 -6.38798 16.9281
rtibia 71.3286
rfoot 4.31919 -5.72246
rtoes 8.91152
lfemur -7.29274 4.96174 -22.9892
ltibia 17.3938
lfoot -3.78127 -10.3404
ltoes 5.65248
1009
root 18.3676 20.8953 -8.53848 -182.076 3.34012 -180.495
lowerback 4.24048 1.29851 -2.50516
upperback 2.31 1.7442 1.0013
thorax -0.107122 0.889642 2.35713
lowerneck -11.9184 3.6686 -8.47843
upperneck 41.6273 0.742135 3.10093
head 17.062 -2.59353 2.45844
rclavicle -4.27387e-015 -6.16232e-015
rhumerus -32.3359 -11.9784 -79.9313
rradius 25.4264
rwrist -5.30204
rhand -18.7061 11.1457
rfingers 7.12502
rthumb 7.58881 -18.6982
lclavicle -4.27387e-015 -6.16232e-015
lhumerus -37.2267 12.4101 80.5382
lradius 24.2966
lwrist -1.06052
lhand -15.7621 22.5021
lfingers 7.12502
lthumb 10.4297 52.2234
rfemur -14.1279 -6.7924 16.578
rtibia 71.7484
rfoot 2.13037 -5.80151
rtoes 9.26719
lfemur -6.83554 4.65906 -23.2931
ltibia 17.618
lfoot -3.88315 -10.4476
ltoes 9.35582
1010
root 18.3658 20.8974 -8.63307 -182.085 3.01937 -180.479
lowerback 4.3687 1.10043 -2.61608
upperback 2.34293 1.47824 1.08915
thorax -0.133517 0.757205 2.51986
lowerneck -11.9981 3.7838 -8.59739
upperneck 41.7755 0.882255 3.17805
head 17.1497 -2.56665 2.53643
rclavicle -6.80837e-015 1.39149e-014
rhumerus -32.2773 -11.4317 -80.1309
rradius 25.8518
rwrist -6.7965
rhand -18.9714 11.6096
rfingers 7.12502
rthumb 7.3328 -18.2433
lclavicle -6.80837e-015 1.39149e-014
lhumerus -37.1098 12.2035 80.7256
lradius 24.7654
lwrist -0.909484
lhand -15.6575 22.447
lfingers 7.12502
lthumb 10.5306 52.1633
rfemur -15.2965 -7.09569 16.6396
rtibia 72.0102
rfoot 0.599604 -5.8537
rtoes 12.4294
lfemur -6.53408 4.33459 -23.2832
ltibia 17.8829
lfoot -4.16223 -10.4852
ltoes 11.1526
1011
root 18.3635 20.8906 -8.72425 -182.105 2.71341 -180.353
lowerback 4.58827 0.954422 -2.54474
upperback 2.36367 1.2874 1.17622
thorax -0.222966 0.665342 2.57473
lowerneck -11.9968 -3.06757 -7.12893
upperneck 41.6971 4.19033 -0.31672
head 17.3142 2.51699 2.48954
rclavicle -1.03865e-014 1.13307e-014
rhumerus -32.1325 -11.3176 -80.1195
rradius 26.0402
rwrist -7.35875
rhand -19.0124 11.7166
rfingers 7.12502
rthumb 7.29316 -18.1377
lclavicle -1.03865e-014 1.13307e-014
lhumerus -36.9723 11.4315 81.1439
lradius 25.3295
lwrist -0.318219
lhand -15.1272 23.029
lfingers 7.12502
lthumb 11.042 52.7185
rfemur -16.382 -7.46141 16.8428
rtibia 72.1116
rfoot -0.994612 -5.83918
rtoes 13.0797
lfemur -6.34134 4.29441 -23.1943
ltibia 18.1645
lfoot -4.40867 -10.6703
ltoes 9.78737
1012
root 18.3631 20.8801 -8.81591 -182.17 2.39832 -180.506
lowerback 4.82497 0.818851 -2.76685
upperback 2.39466 1.09723 1.18443
thorax -0.314393 0.571728 2.71444
lowerneck -11.9901 -2.99826 -7.07648
upperneck 41.5349 4.23702 -0.390216
head 17.2194 2.52326 2.44241
rclavicle 5.59082e-015 -2.38542e-015
rhumerus -32.1292 -10.9762 -80.2251
rradius 26.465
rwrist -8.11116
rhand -19.2502 11.3061
rfingers 7.12502
rthumb 7.06368 -18.556
lclavicle 5.59082e-015 -2.38542e-015
lhumerus -36.8903 10.6495 81.5568
lradius 25.9857
lwrist 0.456593
lhand -15.3994 22.9865
lfingers 7.12502
lthumb 10.7795 52.6899
rfemur -17.4445 -7.81866 16.7752
rtibia 72.0437
rfoot -2.69887 -5.81306
rtoes 11.6149
lfemur -6.22591 4.33114 -23.3943
ltibia 18.6346
lfoot -4.85521 -10.9809
ltoes 8.89915
1013
root 18.362 20.8736 -8.90827 -182.036 2.12643 -180.681
lowerback 4.78754 0.69918 -3.02426
upperback 2.38725 0.926789 1.19361
thorax -0.292972 0.483765 2.87822
lowerneck -11.9952 -2.96872 -7.23709
upperneck 41.5654 4.22829 -0.144325
head 17.2253 2.52399 2.58105
rclavicle -8.64713e-015 -4.17448e-015
rhumerus -32.1829 -10.5372 -80.3469
rradius 27.0495
rwrist -8.97421
rhand -19.3994 11.3974
rfingers 7.12502
rthumb 6.9196 -18.4695
lclavicle -8.64713e-015 -4.17448e-015
lhumerus -36.8445 10.1578 81.8286
lradius 26.7555
lwrist 0.888835
lhand -16.3475 22.3076
lfingers 7.12502
lthumb 9.86491 52.0565
rfemur -18.7371 -8.02202 16.722
rtibia 71.8326
rfoot -4.54086 -5.74321
rtoes 11.3858
lfemur -6.37076 4.1775 -23.6219
ltibia 19.1589
lfoot -5.20568 -11.07
ltoes 11.767
1014
root 18.3583 20.8589 -9.00349 -181.944 1.86964 -180.805
lowerback 4.75279 0.602745 -3.14532
upperback 2.41048 0.795404 1.18608
thorax -0.241261 0.416342 2.94598
lowerneck -11.962 -2.9867 -7.42732
upperneck 41.5326 4.1455 0.0548581
head 17.1912 2.482 2.68606
rclavicle -7.1314e-015 -9.14409e-015
rhumerus -32.0995 -10.3839 -80.4024
rradius 27.3891
rwrist -9.576
rhand -19.7836 11.859
rfingers 7.12502
rthumb 6.54875 -18.0197
lclavicle -7.1314e-015 -9.14409e-015
lhumerus -36.7252 9.65705 82.0719
lradius 27.4693
lwrist 1.14478
lhand -16.8669 21.9791
lfingers 7.12502
lthumb 9.3638 51.7511
rfemur -19.8547 -8.3236 16.6515
rtibia 71.5032
rfoot -6.54136 -5.60584
rtoes 11.2314
lfemur -6.46512 4.16574 -23.8073
ltibia 19.7237
lfoot -5.57571 -11.219
ltoes 13.5053
1015
root 18.3553 20.8416 -9.09563 -182.017 1.56849 -181.052
lowerback 4.96109 0.515403 -3.37982
upperback 2.45014 0.667526 1.12749
thorax -0.308036 0.353672 3.02265
lowerneck -11.8717 -3.01422 -7.4181
upperneck 41.4156 4.05489 0.0265267
head 17.1064 2.43867 2.64536
rclavicle -6.01324e-015 1.15295e-014
rhumerus -32.0374 -10.2503 -80.4766
rradius 27.6745
rwrist -9.96054
rhand -20.1214 11.895
rfingers 7.12502
rthumb 6.22262 -17.9936
lclavicle -6.01324e-015 1.15295e-014
lhumerus -36.6816 9.10252 82.2892
lradius 28.2416
lwrist 1.49406
lhand -16.9422 22.3406
lfingers 7.12502
lthumb 9.29112 52.1159
rfemur -20.7457 -8.73263 16.4353
rtibia 71.0547
rfoot -8.09227 -5.6746
rtoes 10.5332
lfemur -6.40213 4.23595 -24.1162
ltibia 20.4779
lfoot -6.31523 -11.4729
ltoes 12.7961
